<?xml version='1.0' encoding='UTF-8' standalone='no'?>
<svg baseProfile="tiny" height="210mm" version="1.2" viewBox="0 0 2970 2100" width="297mm" xmlns="http://www.w3.org/2000/svg" xmlns:cc="http://creativecommons.org/ns#" xmlns:dc="http://purl.org/dc/elements/1.1/" xmlns:freecad="https://www.freecad.org/wiki/index.php?title=Svg_Namespace" xmlns:inkscape="http://www.inkscape.org/namespaces/inkscape" xmlns:rdf="http://www.w3.org/1999/02/22-rdf-syntax-ns#" xmlns:sodipodi="http://sodipodi.sourceforge.net/DTD/sodipodi-0.dtd" xmlns:svg="http://www.w3.org/2000/svg" xmlns:xlink="http://www.w3.org/1999/xlink">
 <title>FreeCAD SVG Export</title>
 <desc>Drawing page: Page exported from FreeCAD document: Unnamed</desc>
 <defs/>
 <g id="Page" inkscape:groupmode="layer" inkscape:label="TechDraw">
  <g id="Default_Template_A4_Landscape.svg" style="stroke: none;" transform="scale(10.000000, 10.000000)">
   <metadata id="metadata8">
    <rdf:RDF>
     <cc:Work rdf:about="">
      <dc:format>image/svg+xml</dc:format>
      <dc:type rdf:resource="http://purl.org/dc/dcmitype/StillImage"/>
     </cc:Work>
    </rdf:RDF>
   </metadata>
  </g>
  <g fill="none" fill-rule="evenodd" id="DrawingContent" stroke="black" stroke-linecap="square" stroke-linejoin="bevel" stroke-width="1">
   <g fill="#f1f3f5" fill-opacity="0" font-family="Segoe UI" font-size="31.75" font-style="normal" font-weight="400" stroke="none" transform="matrix(1,0,0,1,1485,1050)">
    <path d="M10.5,125.73 C10.5,131.529 5.79899,136.23 0,136.23 C-5.79899,136.23 -10.5,131.529 -10.5,125.73 C-10.5,119.931 -5.79899,115.23 0,115.23 C5.79899,115.23 10.5,119.931 10.5,125.73 " fill-rule="evenodd" vector-effect="non-scaling-stroke"/>
   </g>
   <g fill="#f1f3f5" fill-opacity="0" font-family="Segoe UI" font-size="31.75" font-style="normal" font-weight="400" stroke="none" transform="matrix(1,0,0,1,1485,1050)">
    <path d="M-30,50.7302 L-30,150.73 L30,150.73 L30,170.73 L30,150.73 L50,150.73 L30,150.73 L30,50.7302 L30,150.73 L-30,150.73 L-50,150.73 L-30,150.73 L-30,170.73 L-30,150.73 L-30,50.7302" fill-rule="evenodd" vector-effect="non-scaling-stroke"/>
   </g>
   <g fill="#f1f3f5" fill-opacity="0" font-family="Segoe UI" font-size="31.75" font-style="normal" font-weight="400" stroke="none" transform="matrix(1,0,0,1,1485,1050)">
    <path d="M30,-52.2698 L30,45.7302 L30,-52.2698 L-9.48683,-170.73 L30,-52.2698" fill-rule="evenodd" vector-effect="non-scaling-stroke"/>
   </g>
   <g fill="#f1f3f5" fill-opacity="0" font-family="Segoe UI" font-size="31.75" font-style="normal" font-weight="400" stroke="none" transform="matrix(1,0,0,1,1485,1050)">
    <path d="M-30,-52.2698 L9.48683,-170.73 L-30,-52.2698 L-30,45.7302 L-30,-52.2698" fill-rule="evenodd" vector-effect="non-scaling-stroke"/>
   </g>
   <g fill="none" font-family="Segoe UI" font-size="31.75" font-style="normal" font-weight="400" stroke="#000000" stroke-linecap="round" stroke-linejoin="bevel" stroke-opacity="1" stroke-width="7" transform="matrix(1,0,0,1,1485,1050)">
    <path d="M-30,50.7302 L-30,150.73" fill-rule="evenodd" vector-effect="none"/>
   </g>
   <g fill="none" font-family="Segoe UI" font-size="31.75" font-style="normal" font-weight="400" stroke="#000000" stroke-linecap="round" stroke-linejoin="bevel" stroke-opacity="1" stroke-width="7" transform="matrix(1,0,0,1,1485,1050)">
    <path d="M-30,150.73 L-50,150.73" fill-rule="evenodd" vector-effect="none"/>
   </g>
   <g fill="none" font-family="Segoe UI" font-size="31.75" font-style="normal" font-weight="400" stroke="#000000" stroke-linecap="round" stroke-linejoin="bevel" stroke-opacity="1" stroke-width="7" transform="matrix(1,0,0,1,1485,1050)">
    <path d="M-30,150.73 L-30,170.73" fill-rule="evenodd" vector-effect="none"/>
   </g>
   <g fill="none" font-family="Segoe UI" font-size="31.75" font-style="normal" font-weight="400" stroke="#000000" stroke-linecap="round" stroke-linejoin="bevel" stroke-opacity="1" stroke-width="7" transform="matrix(1,0,0,1,1485,1050)">
    <path d="M-30,150.73 L30,150.73" fill-rule="evenodd" vector-effect="none"/>
   </g>
   <g fill="none" font-family="Segoe UI" font-size="31.75" font-style="normal" font-weight="400" stroke="#000000" stroke-linecap="round" stroke-linejoin="bevel" stroke-opacity="1" stroke-width="7" transform="matrix(1,0,0,1,1485,1050)">
    <path d="M30,150.73 L50,150.73" fill-rule="evenodd" vector-effect="none"/>
   </g>
   <g fill="none" font-family="Segoe UI" font-size="31.75" font-style="normal" font-weight="400" stroke="#000000" stroke-linecap="round" stroke-linejoin="bevel" stroke-opacity="1" stroke-width="7" transform="matrix(1,0,0,1,1485,1050)">
    <path d="M30,150.73 L30,170.73" fill-rule="evenodd" vector-effect="none"/>
   </g>
   <g fill="none" font-family="Segoe UI" font-size="31.75" font-style="normal" font-weight="400" stroke="#000000" stroke-linecap="round" stroke-linejoin="bevel" stroke-opacity="1" stroke-width="7" transform="matrix(1,0,0,1,1485,1050)">
    <path d="M30,150.73 L30,50.7302" fill-rule="evenodd" vector-effect="none"/>
   </g>
   <g fill="none" font-family="Segoe UI" font-size="31.75" font-style="normal" font-weight="400" stroke="#000000" stroke-linecap="round" stroke-linejoin="bevel" stroke-opacity="1" stroke-width="7" transform="matrix(1,0,0,1,1485,1050)">
    <path d="M30,-52.2698 L30,45.7302" fill-rule="evenodd" vector-effect="none"/>
   </g>
   <g fill="none" font-family="Segoe UI" font-size="31.75" font-style="normal" font-weight="400" stroke="#000000" stroke-linecap="round" stroke-linejoin="bevel" stroke-opacity="1" stroke-width="7" transform="matrix(1,0,0,1,1485,1050)">
    <path d="M30,-52.2698 L-9.48683,-170.73" fill-rule="evenodd" vector-effect="none"/>
   </g>
   <g fill="none" font-family="Segoe UI" font-size="31.75" font-style="normal" font-weight="400" stroke="#000000" stroke-linecap="round" stroke-linejoin="bevel" stroke-opacity="1" stroke-width="7" transform="matrix(1,0,0,1,1485,1050)">
    <path d="M-30,-52.2698 L-30,45.7302" fill-rule="evenodd" vector-effect="none"/>
   </g>
   <g fill="none" font-family="Segoe UI" font-size="31.75" font-style="normal" font-weight="400" stroke="#000000" stroke-linecap="round" stroke-linejoin="bevel" stroke-opacity="1" stroke-width="7" transform="matrix(1,0,0,1,1485,1050)">
    <path d="M-30,-52.2698 L9.48683,-170.73" fill-rule="evenodd" vector-effect="none"/>
   </g>
   <g fill="none" font-family="Segoe UI" font-size="31.75" font-style="normal" font-weight="400" stroke="#000000" stroke-linecap="round" stroke-linejoin="bevel" stroke-opacity="1" stroke-width="7" transform="matrix(1,0,0,1,1485,1050)">
    <path d="M10.5,125.73 C10.5,131.529 5.79899,136.23 0,136.23 C-5.79899,136.23 -10.5,131.529 -10.5,125.73 C-10.5,119.931 -5.79899,115.23 0,115.23 C5.79899,115.23 10.5,119.931 10.5,125.73 " fill-rule="evenodd" vector-effect="none"/>
   </g>
  </g>
 </g>
</svg>
